<svg width="450" height="72" viewBox="0 0 450 72" fill="none" xmlns="http://www.w3.org/2000/svg">
<path d="M211.277 63.4712C210.035 63.4712 208.26 63.1718 206.875 61.7512C205.549 60.3881 204.876 58.3106 204.876 55.5785V54.4062C204.876 54.4062 200.963 63.4712 192.298 63.4712C186.94 63.4712 183.198 59.538 183.198 53.9047V34.0015C183.198 30.5782 182.333 27.5698 180.861 25.7861C184.365 25.5556 188.092 24.4837 191.255 22.7979V52.3311C191.255 54.2244 191.857 55.8293 193.004 56.9733C194.041 58.0106 195.444 58.5842 196.948 58.5842C199.214 58.5842 201.291 57.3681 202.643 55.2503C204.06 53.0402 204.873 49.7724 204.873 46.2857V34.0073C204.873 30.4889 204.06 27.541 202.626 25.7832C206.131 25.5527 209.862 24.4808 213.025 22.795V53.6335C213.025 58.4114 215.223 59.6388 216.779 59.907C216.009 61.6096 214.442 63.4742 211.277 63.4742V63.4712Z" fill="#034638"/>
<path d="M237.235 63.4683C235.524 63.4683 232.914 62.728 230.889 61.6703C229.759 61.0908 228.161 60.5809 226.354 60.5809C223.433 60.5809 221.327 61.9643 219.377 63.0418V19.6136C219.38 16.0866 218.545 13.1387 217.072 11.3896C220.607 11.162 224.251 10.1102 227.446 8.39856V30.385C227.446 30.385 231.713 22.3396 240.035 22.3396C243.186 22.3396 245.831 23.3568 248.119 25.4488C251.613 28.7108 253.698 34.7506 253.698 41.6C253.791 47.6715 251.993 53.6624 248.888 57.6334C245.958 61.4484 241.931 63.4654 237.241 63.4654L237.235 63.4683ZM235.731 26.3018C235.648 26.3018 235.564 26.3018 235.477 26.3047C231.422 26.4084 227.44 31.431 227.44 36.2778V51.4091C227.44 56.7569 231.586 62.4569 238.085 62.4569C238.445 62.4569 238.814 62.4281 239.174 62.3705C242.075 61.9241 244.157 59.774 245.367 55.9793C246.39 52.6132 246.681 47.6283 246.165 42.3032C245.693 38.6407 244.656 33.5864 242.391 30.2495C240.701 27.6648 238.396 26.296 235.731 26.296V26.3018Z" fill="#034638"/>
<path d="M427.906 63.4862C424.311 63.4862 420.765 62.5234 417.645 60.7055C412.88 57.9968 409.472 53.5909 408.049 48.2973C406.62 42.9923 407.361 37.4568 410.126 32.7137C413.796 26.3598 420.606 22.4121 427.9 22.4121C431.493 22.4121 435.056 23.3745 438.205 25.1957C447.982 30.8119 451.353 43.3698 445.721 53.1902C442.054 59.5441 435.229 63.4887 427.909 63.4887L427.906 63.4862ZM421.845 24.7894C420.428 24.7894 419.134 25.1207 417.999 25.7778C412.422 29.0022 412.327 39.3413 417.786 48.8246C422.015 56.1695 428.531 61.1087 434.002 61.1087C435.419 61.1087 436.713 60.7775 437.847 60.1206C443.419 56.89 443.514 46.5539 438.061 37.0735C433.829 29.7255 427.313 24.7894 421.845 24.7894Z" fill="#034638"/>
<path d="M93.7363 63.4634C95.226 61.6307 96.0671 58.697 96.0696 55.2852V16.1679C96.0696 12.7504 95.2285 9.81693 93.7393 7.98425C100.644 7.98425 108.895 7.98425 115.509 7.99289C122.216 7.99289 127.703 10.6929 131.382 15.7991C134.874 20.6459 136.717 27.5386 136.717 35.7281C136.717 43.9175 134.871 50.8103 131.379 55.6571C127.7 60.7632 122.213 63.4605 115.509 63.4605H93.7363V63.4634ZM104.698 62.7459H111.139C116.653 62.7459 120.899 60.4638 123.76 55.9625C126.638 51.4325 128.098 44.6235 128.098 35.7252C128.098 26.824 126.64 20.0149 123.763 15.4879C120.902 10.9869 116.656 8.70177 111.139 8.70177H104.698L104.695 62.7484L104.698 62.7459Z" fill="#034638"/>
<path d="M159.2 63.4686C155.604 63.4686 152.058 62.5063 148.938 60.688C144.174 57.9763 140.766 53.5704 139.342 48.2768C137.917 42.9719 138.654 37.4393 141.419 32.6962C145.09 26.3423 151.9 22.3945 159.194 22.3945C162.786 22.3945 166.347 23.357 169.498 25.1782C179.276 30.7943 182.646 43.3522 177.014 53.1726C173.347 59.5265 166.523 63.4716 159.203 63.4716L159.2 63.4686ZM153.139 24.7719C151.721 24.7719 150.428 25.1032 149.293 25.7602C143.719 28.9847 143.621 39.3238 149.08 48.8071C153.306 56.1525 159.825 61.0912 165.296 61.0912C166.713 61.0912 168.006 60.76 169.141 60.103C174.713 56.8725 174.808 46.5364 169.354 37.056C165.122 29.708 158.606 24.7719 153.139 24.7719Z" fill="#034638"/>
<path d="M263.788 63.4683C261.981 63.4683 260.463 62.875 259.397 61.7508C258.121 60.4021 257.473 58.3246 257.473 55.5702V19.9162L257.478 19.6338C257.478 16.2048 256.611 13.1935 255.137 11.4069C258.683 11.1822 262.338 10.1333 265.542 8.41296V53.6192C265.539 55.6134 265.948 57.181 266.755 58.2789C267.403 59.1602 268.307 59.7164 269.385 59.8981C268.61 61.6013 267.023 63.4683 263.782 63.4683H263.788Z" fill="#034638"/>
<path d="M382.348 63.474C383.699 61.7683 384.503 59.0536 384.589 55.8722L384.595 55.5872V55.2992L384.601 33.9696C384.601 30.4541 383.788 27.5062 382.351 25.7456C385.859 25.5151 389.596 24.4403 392.762 22.7516V32.0274L393.836 30.1775C396.752 25.1578 400.459 22.4491 403.757 22.4491C405.278 22.4491 406.661 22.9649 407.644 23.9014C408.548 24.763 409.067 25.9387 409.067 27.1259C409.067 30.1631 406.549 32.5202 404.383 32.5202C403.17 32.5202 402.36 31.6644 401.3 30.555C400.174 29.3793 398.909 28.267 397.567 28.267C396.124 28.267 394.453 31.2696 392.926 33.5604L392.765 33.7996V55.2962C392.765 58.7339 393.574 61.6645 395.009 63.474H382.348Z" fill="#034638"/>
<path d="M345.663 7.70105H306.695L305.127 17.6972C309.443 10.0178 314.193 8.98334 322.57 8.98622H335.05L303.137 63.7417H342.105L343.658 54.0396C339.36 61.4253 334.589 62.4681 326.214 62.4656H313.738L345.663 7.70105Z" fill="#034638"/>
<path d="M289.948 63.4823C284.437 63.4823 279.269 61.3387 275.391 57.4458C271.522 53.5642 269.391 48.4032 269.391 42.9167C269.391 31.5777 278.612 22.3538 289.948 22.3538C293.439 22.3538 297.199 23.5582 300.008 25.5638C302.208 27.1371 304.85 29.9064 304.919 34.1711V34.3469C304.919 37.3725 303.525 39.1187 300.408 40.0178C300.03 40.1273 299.616 40.2282 299.178 40.3175C298.126 40.5307 296.994 40.6748 295.903 40.816L295.825 40.8246C295.078 40.9197 294.307 41.0148 293.578 41.1359C291.927 41.4355 290.279 41.7554 288.686 42.0695L288.447 42.1156C287.148 42.3692 285.923 42.6084 284.817 42.8101C284.391 42.8994 284.014 42.9945 283.656 43.1068C281.98 43.5564 280.453 44.248 279.255 45.1038C278.69 45.5101 278.217 45.9308 277.846 46.3573L277.722 46.4985L277.8 46.6685C277.935 46.9624 278.082 47.2563 278.232 47.5474C278.387 47.8471 278.543 48.1439 278.707 48.4349C279.637 50.1147 280.707 51.6679 281.887 53.0483L281.951 53.1203L282.023 53.1377C282.299 53.4863 282.593 53.8348 282.901 54.172C283.04 54.3249 283.181 54.4749 283.325 54.6219C283.809 55.1174 284.316 55.5872 284.831 56.0162C288.061 58.6906 291.708 60.1023 295.384 60.1023C297.887 60.1023 300.379 59.4513 302.79 58.1633C302.816 58.1489 302.845 58.1429 302.883 58.1429C302.949 58.1429 303.018 58.1747 303.064 58.2293C303.099 58.2725 303.116 58.3331 303.11 58.3991C303.105 58.4543 303.073 58.5089 303.024 58.5521C299.333 61.5895 294.321 63.4794 289.948 63.4794V63.4823ZM281.34 26.1228C280.784 26.2929 280.248 26.5148 279.75 26.7799C278.189 27.6558 276.99 28.9843 276.175 30.7247C275.36 32.4681 274.988 34.5198 275.072 36.8193C275.072 36.8654 275.072 36.9259 275.077 36.9864C275.1 37.4993 275.147 38.0324 275.216 38.5597C275.455 40.2944 275.809 41.5767 276.287 43.0924C276.495 43.7639 276.734 44.4324 277.01 45.1297L277.206 45.6254C277.206 45.6254 279.041 43.3172 283.043 41.7352C283.083 41.7179 284.218 41.303 284.218 41.303C285.272 40.9486 289.697 40.0322 289.697 40.0322C293.258 39.3349 295.479 37.7039 295.951 35.4448C296.078 34.8454 296.075 34.2143 295.946 33.5746C295.551 31.569 293.917 29.4914 291.466 27.8749C289.326 26.5003 286.819 25.731 284.408 25.7079H284.293C283.267 25.7079 282.288 25.8433 281.38 26.1113L281.355 26.1171L281.337 26.1257L281.34 26.1228Z" fill="#034638"/>
<path d="M364.777 63.4823C359.267 63.4823 354.099 61.3387 350.221 57.4458C346.352 53.5642 344.221 48.4032 344.221 42.9167C344.221 31.5777 353.442 22.3538 364.777 22.3538C368.269 22.3538 372.029 23.5582 374.837 25.5638C377.038 27.1371 379.68 29.9064 379.749 34.1711V34.3469C379.749 37.3725 378.355 39.1187 375.238 40.0178C374.86 40.1273 374.445 40.2282 374.008 40.3175C372.956 40.5307 371.824 40.6748 370.732 40.816L370.655 40.8246C369.908 40.9197 369.136 41.0148 368.407 41.1359C366.757 41.4355 365.109 41.7554 363.516 42.0695L363.277 42.1156C361.977 42.3692 360.753 42.6084 359.647 42.8101C359.221 42.8994 358.843 42.9945 358.486 43.1068C356.809 43.5564 355.282 44.248 354.084 45.1038C353.52 45.5101 353.047 45.9308 352.675 46.3573L352.552 46.4985L352.629 46.6685C352.765 46.9624 352.912 47.2563 353.061 47.5474C353.217 47.8471 353.373 48.1439 353.537 48.4349C354.468 50.1147 355.536 51.6679 356.717 53.0483L356.78 53.1203L356.852 53.1377C357.129 53.4863 357.423 53.8348 357.731 54.172C357.869 54.3249 358.011 54.4749 358.155 54.6219C358.639 55.1174 359.146 55.5872 359.661 56.0162C362.891 58.6906 366.538 60.1023 370.214 60.1023C372.717 60.1023 375.209 59.4513 377.62 58.1633C377.646 58.1489 377.675 58.1429 377.712 58.1429C377.779 58.1429 377.848 58.1747 377.894 58.2293C377.928 58.2725 377.945 58.3331 377.94 58.3991C377.934 58.4543 377.902 58.5089 377.854 58.5521C374.163 61.5895 369.151 63.4794 364.777 63.4794V63.4823ZM356.17 25.4284C355.614 25.6042 355.078 25.8347 354.58 26.1084C353.018 27.0161 351.82 28.3906 351.005 30.1945C350.189 32.0013 349.818 34.125 349.901 36.5052C349.901 36.5513 349.901 36.6176 349.907 36.6781C349.93 37.2083 349.976 37.7615 350.045 38.3061C350.285 40.1042 350.639 41.4298 351.117 43.0002C351.324 43.6976 351.564 44.3863 351.84 45.1124L352.036 45.6254C352.036 45.6254 353.871 43.2365 357.872 41.5969C357.913 41.5796 359.048 41.1503 359.048 41.1503C360.102 40.7814 364.527 39.8334 364.527 39.8334C368.087 39.1101 370.309 37.4215 370.781 35.0817C370.908 34.4621 370.905 33.808 370.775 33.1424C370.381 31.0648 368.747 28.9122 366.296 27.2409C364.155 25.8174 361.649 25.0221 359.238 24.9962H359.123C358.097 24.9962 357.118 25.1373 356.21 25.414L356.184 25.4198L356.167 25.4284H356.17Z" fill="#034638"/>
<path d="M29.3589 15.8918H21.4199V23.8375H29.3589V15.8918Z" fill="#034638"/>
<path d="M33.328 15.8918H33.3347V11.9224H21.4195V15.8918H29.3585V23.8375H21.4195H21.4128V15.8918H21.4195H17.4434V27.807H33.3347H33.328V15.8918Z" fill="#034638"/>
<path d="M49.2191 35.7521H41.2734V43.6977H49.2191V35.7521Z" fill="#034638"/>
<path d="M37.3027 47.6738H38.7929H49.2179V43.6976H41.2722V35.752H49.2179V43.6976H53.1939V31.7825H37.3027V47.6738Z" fill="#034638"/>
<path d="M25.3831 51.6437V47.6741H21.4203H21.4136V43.6979H17.4374V39.7284H13.4746V55.6132H29.3592V51.6437H25.3831Z" fill="#034638"/>
<path d="M17.4437 39.7278V35.7521H13.4746V39.7278H17.437H17.4437Z" fill="#034638"/>
<path d="M29.3578 47.6737H25.3887V51.6427H29.3578V47.6737Z" fill="#034638"/>
<path d="M29.3574 51.6433V55.6123H33.3332V51.6433H29.3574Z" fill="#034638"/>
<path d="M25.3804 47.6731H25.3871V43.6974H21.418V47.6731H25.3804Z" fill="#034638"/>
<path d="M21.4211 39.7284H17.4453V43.6974H21.4211V39.7284Z" fill="#034638"/>
<path d="M61.133 7.94592H57.1641V11.9217H61.133V7.94592Z" fill="#034638"/>
<path d="M65.1068 11.9224H61.1309V15.8914H65.1068V11.9224Z" fill="#034638"/>
<path d="M49.2188 15.8913H53.1949V7.94568H57.1643V3.97617H53.1949V0H49.2188V7.94568V15.8913Z" fill="#034638"/>
<path d="M29.3573 55.6134H13.4727V59.5898H29.3573V55.6134Z" fill="#034638"/>
<path d="M65.1102 15.8918H49.2188V19.8613H57.1644V19.868H61.1339V31.7831H65.1102V15.8918Z" fill="#034638"/>
<path d="M61.1329 67.5352H37.3027V71.5116H65.1093V71.2643V67.5352V47.6744H61.1329V67.5352Z" fill="#034638"/>
<path d="M5.52891 3.97617H49.22V0H1.55273V0.00667898V71.5042V71.5112H13.4679V67.5348H5.52891V3.97617Z" fill="#034638"/>
<path d="M53.1934 31.7825V43.7043V43.6976L57.1633 43.7043V31.7825H53.1934Z" fill="#034638"/>
<path d="M37.3027 47.6744V51.644H49.2179V47.6744H38.793H37.3027Z" fill="#034638"/>
<path d="M53.1936 43.7048H49.2246V47.6739H53.1936V43.7048Z" fill="#034638"/>
<path d="M21.4121 31.7829H33.334V27.8068H21.4121V31.7829Z" fill="#034638"/>
<path d="M37.3035 15.8918H33.334V27.807H37.3035V15.8918Z" fill="#034638"/>
<path d="M53.1708 51.8185V59.6993H41.3457V63.6364H57.1079V51.8185H53.1708Z" fill="#034638"/>
</svg>
